<svg xmlns="http://www.w3.org/2000/svg" width="704" height="1086" viewBox="0 0 704 1086" font-family="system-ui, -apple-system, 'Segoe UI', sans-serif">
<rect width="704" height="1086" fill="#FFFFFF"/>
<rect x="32" y="32" width="640" height="726" rx="14" fill="#EEEDFE" stroke="#534AB7" stroke-width="1.0" />
<text x="52" y="63" text-anchor="start" font-size="15" font-weight="500" fill="#3C3489" dominant-baseline="central">greek  —  Physical</text>
<rect x="52" y="84" width="600" height="176" rx="10" fill="#E1F5EE" stroke="#0F6E56" stroke-width="0.8" />
<path d="M 57,84 L 62,84 Q 52,84 52,94 L 52,250 Q 52,260 62,260 L 57,260 Z" fill="#16A34A"/>
<text x="68" y="111" text-anchor="start" font-size="14" font-weight="500" fill="#085041" dominant-baseline="central">elysium</text>
<text x="68" y="130" text-anchor="start" font-size="11" font-weight="400" fill="#0F6E56" dominant-baseline="central">Mini-ITX  ·  Asher Lucas-Cuddeback</text>
<rect x="68" y="154" width="568" height="36" rx="6" fill="#F1EFE8" stroke="#5F5E5A" stroke-width="0.5" />
<text x="78" y="172" text-anchor="start" font-size="11" font-weight="400" fill="#444441" dominant-baseline="central">AMD Ryzen 9 9900x3d  ·  64 GB RAM  ·  Zotac RTX 4070 Twin Edge  ·  4.0 TB</text>
<rect x="68" y="200" width="279" height="44" rx="6" fill="#FAECE7" stroke="none" stroke-width="1.0" />
<path d="M 72,200 L 74,200 Q 68,200 68,206 L 68,238 Q 68,244 74,244 L 72,244 Z" fill="#16A34A"/>
<text x="80" y="214" text-anchor="start" font-size="13" font-weight="500" fill="#712B13" dominant-baseline="auto">diomedes</text>
<text x="80" y="230" text-anchor="start" font-size="11" font-weight="400" fill="#993C1D" dominant-baseline="auto">Omarchy  ·  hyprland  ·  bash</text>
<rect x="357" y="200" width="279" height="44" rx="6" fill="#FAECE7" stroke="none" stroke-width="1.0" />
<path d="M 361,200 L 363,200 Q 357,200 357,206 L 357,238 Q 357,244 363,244 L 361,244 Z" fill="#16A34A"/>
<text x="369" y="214" text-anchor="start" font-size="13" font-weight="500" fill="#712B13" dominant-baseline="auto">odysseus</text>
<text x="369" y="230" text-anchor="start" font-size="11" font-weight="400" fill="#993C1D" dominant-baseline="auto">NixOS  ·  KDE Plasma 6  ·  fish</text>
<rect x="52" y="274" width="600" height="130" rx="10" fill="#E1F5EE" stroke="#0F6E56" stroke-width="0.8" />
<path d="M 57,274 L 62,274 Q 52,274 52,284 L 52,394 Q 52,404 62,404 L 57,404 Z" fill="#16A34A"/>
<text x="68" y="301" text-anchor="start" font-size="14" font-weight="500" fill="#085041" dominant-baseline="central">erebus</text>
<text x="68" y="320" text-anchor="start" font-size="11" font-weight="400" fill="#0F6E56" dominant-baseline="central">laptop  ·  HP Elitebook 8 G1i 14in  ·  NCG</text>
<rect x="68" y="344" width="279" height="44" rx="6" fill="#FAECE7" stroke="none" stroke-width="1.0" />
<path d="M 72,344 L 74,344 Q 68,344 68,350 L 68,382 Q 68,388 74,388 L 72,388 Z" fill="#16A34A"/>
<text x="80" y="358" text-anchor="start" font-size="13" font-weight="500" fill="#712B13" dominant-baseline="auto">hades</text>
<text x="80" y="374" text-anchor="start" font-size="11" font-weight="400" fill="#993C1D" dominant-baseline="auto">NixOS  ·  KDE  ·  fish</text>
<rect x="357" y="344" width="279" height="44" rx="6" fill="#FAECE7" stroke="none" stroke-width="1.0" />
<path d="M 361,344 L 363,344 Q 357,344 357,350 L 357,382 Q 357,388 363,388 L 361,388 Z" fill="#6B7280"/>
<text x="369" y="358" text-anchor="start" font-size="13" font-weight="500" fill="#712B13" dominant-baseline="auto">helios</text>
<text x="369" y="374" text-anchor="start" font-size="11" font-weight="400" fill="#993C1D" dominant-baseline="auto">Windows 11  ·  powershell</text>
<rect x="52" y="418" width="600" height="130" rx="10" fill="#E1F5EE" stroke="#0F6E56" stroke-width="0.8" />
<path d="M 57,418 L 62,418 Q 52,418 52,428 L 52,538 Q 52,548 62,548 L 57,548 Z" fill="#16A34A"/>
<text x="68" y="445" text-anchor="start" font-size="14" font-weight="500" fill="#085041" dominant-baseline="central">olympus</text>
<text x="68" y="464" text-anchor="start" font-size="11" font-weight="400" fill="#0F6E56" dominant-baseline="central">laptop  ·  HP Elitebook 840 G11  ·  NCG</text>
<rect x="68" y="488" width="279" height="44" rx="6" fill="#FAECE7" stroke="none" stroke-width="1.0" />
<path d="M 72,488 L 74,488 Q 68,488 68,494 L 68,526 Q 68,532 74,532 L 72,532 Z" fill="#16A34A"/>
<text x="80" y="502" text-anchor="start" font-size="13" font-weight="500" fill="#712B13" dominant-baseline="auto">hestia</text>
<text x="80" y="518" text-anchor="start" font-size="11" font-weight="400" fill="#993C1D" dominant-baseline="auto">CachyOS  ·  hyprland  ·  zsh</text>
<rect x="52" y="562" width="600" height="176" rx="10" fill="#E1F5EE" stroke="#0F6E56" stroke-width="0.8" />
<path d="M 57,562 L 62,562 Q 52,562 52,572 L 52,728 Q 52,738 62,738 L 57,738 Z" fill="#16A34A"/>
<text x="68" y="589" text-anchor="start" font-size="14" font-weight="500" fill="#085041" dominant-baseline="central">tartarus</text>
<text x="68" y="608" text-anchor="start" font-size="11" font-weight="400" fill="#0F6E56" dominant-baseline="central">ATX  ·  Asher Lucas-Cuddeback</text>
<rect x="68" y="632" width="568" height="36" rx="6" fill="#F1EFE8" stroke="#5F5E5A" stroke-width="0.5" />
<text x="78" y="650" text-anchor="start" font-size="11" font-weight="400" fill="#444441" dominant-baseline="central">AMD Ryzen 5 7600X  ·  32 GB RAM  ·  MSI GAMING X Radeon RX 6600 XT 8 GB  ·  4.0 TB</text>
<rect x="68" y="678" width="279" height="44" rx="6" fill="#FAECE7" stroke="none" stroke-width="1.0" />
<path d="M 72,678 L 74,678 Q 68,678 68,684 L 68,716 Q 68,722 74,722 L 72,722 Z" fill="#16A34A"/>
<text x="80" y="692" text-anchor="start" font-size="13" font-weight="500" fill="#712B13" dominant-baseline="auto">tantalus</text>
<text x="80" y="708" text-anchor="start" font-size="11" font-weight="400" fill="#993C1D" dominant-baseline="auto">NixOS  ·  KDE Plasma 6  ·  fish</text>
<rect x="32" y="782" width="640" height="248" rx="14" fill="#EEEDFE" stroke="#534AB7" stroke-width="1.0" />
<text x="52" y="813" text-anchor="start" font-size="15" font-weight="500" fill="#3C3489" dominant-baseline="central">mesopotamian  —  Network</text>
<rect x="52" y="834" width="600" height="176" rx="10" fill="#E1F5EE" stroke="#0F6E56" stroke-width="0.8" />
<path d="M 57,834 L 62,834 Q 52,834 52,844 L 52,1000 Q 52,1010 62,1010 L 57,1010 Z" fill="#16A34A"/>
<text x="68" y="861" text-anchor="start" font-size="14" font-weight="500" fill="#085041" dominant-baseline="central">kur</text>
<text x="68" y="880" text-anchor="start" font-size="11" font-weight="400" fill="#0F6E56" dominant-baseline="central">ATX  ·  Asher Lucas-Cuddeback</text>
<rect x="68" y="904" width="568" height="36" rx="6" fill="#F1EFE8" stroke="#5F5E5A" stroke-width="0.5" />
<text x="78" y="922" text-anchor="start" font-size="11" font-weight="400" fill="#444441" dominant-baseline="central">Intel Core i5-10400  ·  12 GB RAM  ·  NULL  ·  0.2 TB</text>
<rect x="68" y="950" width="279" height="44" rx="6" fill="#FAECE7" stroke="none" stroke-width="1.0" />
<path d="M 72,950 L 74,950 Q 68,950 68,956 L 68,988 Q 68,994 74,994 L 72,994 Z" fill="#16A34A"/>
<text x="80" y="964" text-anchor="start" font-size="13" font-weight="500" fill="#712B13" dominant-baseline="auto">apsu</text>
<text x="80" y="980" text-anchor="start" font-size="11" font-weight="400" fill="#993C1D" dominant-baseline="auto">pfSense  ·  bash</text>
</svg>